<svg width="353" height="353" viewBox="0 0 353 353" fill="none" xmlns="http://www.w3.org/2000/svg">
<rect width="353" height="353" rx="50" fill="#1F41C1"/>
<rect width="353" height="353" rx="50" fill="url(#paint0_linear_1847_556)"/>
<path d="M191.871 95.5195L128.922 95.5195C116.461 95.5195 107.187 96.0566 101.1 97.1309C94.9407 98.1335 89.4622 100.282 84.6641 103.576C79.7943 106.87 75.748 111.275 72.5254 116.789C69.3027 122.232 67.6914 128.355 67.6914 135.158C67.6914 142.535 69.6966 149.302 73.707 155.461C77.6458 161.62 83.0169 166.239 89.8203 169.318C80.224 172.111 72.8477 176.874 67.6914 183.605C62.5352 190.337 59.957 198.251 59.957 207.346C59.957 214.507 61.64 221.49 65.0059 228.293C68.3001 235.025 72.8477 240.432 78.6484 244.514C84.3776 248.524 91.4674 250.995 99.918 251.926C105.217 252.499 118.001 252.857 138.268 253L191.871 253L191.871 95.5195ZM160.074 121.73L160.074 158.146L139.234 158.146C126.845 158.146 119.146 157.967 116.139 157.609C110.696 156.965 106.435 155.103 103.355 152.023C100.204 148.872 98.6289 144.755 98.6289 139.67C98.6289 134.8 99.9896 130.861 102.711 127.854C105.361 124.774 109.335 122.912 114.635 122.268C117.786 121.91 126.845 121.73 141.812 121.73L160.074 121.73ZM160.074 184.357L160.074 226.467L130.641 226.467C119.182 226.467 111.913 226.145 108.834 225.5C104.107 224.641 100.276 222.564 97.3398 219.27C94.332 215.904 92.8281 211.428 92.8281 205.842C92.8281 201.115 93.974 197.105 96.2656 193.811C98.5573 190.516 101.887 188.117 106.256 186.613C110.553 185.109 119.934 184.357 134.4 184.357L160.074 184.357Z" fill="white"/>
<path d="M161.898 95.5195H220.014C233.119 95.5195 243.109 96.5221 249.984 98.5273C259.223 101.249 267.136 106.083 273.725 113.029C280.313 119.976 285.326 128.498 288.764 138.596C292.201 148.622 293.92 161.011 293.92 175.764C293.92 188.726 292.309 199.898 289.086 209.279C285.147 220.738 279.525 230.012 272.221 237.102C266.706 242.473 259.258 246.662 249.877 249.67C242.859 251.89 233.477 253 221.732 253H161.898V95.5195ZM193.695 122.16V226.467H217.436C226.316 226.467 232.725 225.965 236.664 224.963C241.82 223.674 246.081 221.49 249.447 218.41C252.885 215.331 255.678 210.282 257.826 203.264C259.975 196.174 261.049 186.542 261.049 174.367C261.049 162.193 259.975 152.847 257.826 146.33C255.678 139.813 252.67 134.729 248.803 131.076C244.936 127.424 240.03 124.953 234.086 123.664C229.646 122.661 220.945 122.16 207.982 122.16H193.695Z" fill="white"/>
<defs>
<linearGradient id="paint0_linear_1847_556" x1="353" y1="353" x2="-4.32234e-06" y2="-29" gradientUnits="userSpaceOnUse">
<stop stop-color="#FF5C54" stop-opacity="0"/>
<stop offset="0.655759" stop-color="#FF4D44" stop-opacity="0.457365"/>
<stop offset="1" stop-color="#FF3B30"/>
</linearGradient>
</defs>
</svg>
